# Blender v2.80 (sub 75) OBJ File: ''
# www.blender.org
mtllib fly.mtl
o Plane_Plane.001
v -1.000000 0.000000 0.106687
v 1.000000 0.000000 0.000659
v -1.000000 0.000000 -0.106665
v 1.000000 0.000000 -0.000598
v -0.996552 -0.207459 0.000000
v 0.996552 -0.007923 0.000000
v -1.000000 0.000000 0.409203
v 1.000000 0.000000 0.001973
v -1.000000 0.000000 -0.403452
v 1.000000 0.000000 -0.001173
vt 0.354388 0.652876
vt 0.704382 0.002950
vt 0.705570 0.002225
vt 0.448209 0.743093
vt 0.262839 0.558409
vt 0.704479 0.001137
vt 0.000000 0.296542
vt 0.703337 0.000000
vt 0.706070 0.002723
vt 0.706070 1.000000
vn -0.0460 0.4453 0.8942
vn -0.0460 0.4456 -0.8941
vn 0.0000 1.0000 0.0000
usemtl Material.001
s off
f 5/1/1 6/2/1 4/3/1 3/4/1
f 1/5/2 2/6/2 6/2/2 5/1/2
f 2/6/3 1/5/3 7/7/3 8/8/3
f 3/4/3 4/3/3 10/9/3 9/10/3
